<svg width="386" height="98" viewBox="0 0 386 98" fill="none" xmlns="http://www.w3.org/2000/svg">
<path d="M83.75 83.25C79.25 88.25 74.0833 91.9167 68.25 94.25C62.5833 96.75 56 98 48.5 98C35 98 23.5 93.1667 14 83.5C4.66667 73.8333 0 62.3333 0 49C0 35.5 4.66667 24 14 14.5C23.5 4.83333 35 0 48.5 0C52.5 0 56.5833 0.583333 60.75 1.75C64.9167 2.75 68.75 4.33333 72.25 6.5V20C69.0833 17.6667 65.4167 15.75 61.25 14.25C57.0833 12.75 52.8333 12 48.5 12C38.3333 12 29.6667 15.5833 22.5 22.75C15.5 29.9167 12 38.6667 12 49C12 58.6667 15.75 67.25 23.25 74.75C30.75 82.25 39.3333 86 49 86C55.6667 86 62.0833 84.4167 68.25 81.25C74.4167 77.9167 79.5833 72.3333 83.75 64.5V83.25Z" fill="#323232"/>
<path d="M108.75 96.5H95.25V1.5H108.75V96.5Z" fill="#323232"/>
<path d="M192.75 25V64.25C192.75 72.9167 189.75 80.75 183.75 87.75C177.75 94.5833 169.25 98 158.25 98C147.25 98 138.75 94.5833 132.75 87.75C126.75 80.75 123.75 72.9167 123.75 64.25V25H137.25V63.25C137.25 69.75 139.083 75.3333 142.75 80C146.583 84.6667 151.75 87 158.25 87C164.75 87 169.833 84.6667 173.5 80C177.333 75.3333 179.25 69.75 179.25 63.25V25H192.75Z" fill="#323232"/>
<path d="M226.25 43.25V27.75C228.917 26.0833 231.75 24.75 234.75 23.75C237.75 22.5833 241.417 22 245.75 22C254.583 22 263.083 25.4167 271.25 32.25C279.583 38.9167 283.75 48.1667 283.75 60C283.75 71.1667 279.833 80.3333 272 87.5C264.167 94.5 255.333 98 245.5 98C233.333 98 224 94.3333 217.5 87C211 79.6667 207.75 71.1667 207.75 61.5V1.5H221.25V58.75C221.25 67.4167 223.583 74.1667 228.25 79C232.917 83.6667 238.75 86 245.75 86C253.083 86 259.25 83.5 264.25 78.5C269.25 73.3333 271.75 67.1667 271.75 60C271.75 52.6667 269.167 46.5 264 41.5C259 36.5 252.917 34 245.75 34C241.583 34 237.917 34.8333 234.75 36.5C231.583 38 228.75 40.25 226.25 43.25Z" fill="#323232"/>
<path d="M303.115 2.23848C317.405 1.41593 316.74 11.7774 327.9 17.0665C336.46 21.1104 346.615 19.58 353.605 13.1928C357.785 9.37301 360.217 4.69452 366.086 2.77447C374.161 0.0127987 382.799 4.92455 385.202 12.9411C388.232 22.2522 382.091 27.1368 375.922 32.76C366.306 41.527 365.967 57.4024 375.269 66.5639C378.916 70.1527 384 73.6639 385.328 78.6581C387.689 87.5459 382.65 95.0055 374.171 97.5213C360.986 100.462 358.389 89.1067 349.441 83.7727C340.581 77.924 324.692 80.5852 318.752 89.9189C311.494 101.317 293.864 100.344 290.599 86.7389C286.241 68.578 307.108 70.2603 307.007 49.9704C306.917 31.511 293.286 32.5199 290.524 20.8707C289.581 16.8755 290.295 12.6694 292.498 9.2063C295.063 5.215 298.616 3.26167 303.115 2.23848Z" fill="#A5FE7D"/>
</svg>
